<?xml version="1.0" standalone="no"?>
<!DOCTYPE svg PUBLIC "-//W3C//DTD SVG 20010904//EN"
 "http://www.w3.org/TR/2001/REC-SVG-20010904/DTD/svg10.dtd">
<svg version="1.0" xmlns="http://www.w3.org/2000/svg"
 width="1667.000000pt" height="1667.000000pt" viewBox="0 0 1667.000000 1667.000000"
 preserveAspectRatio="xMidYMid meet">
<metadata>
Created by potrace 1.14, written by Peter Selinger 2001-2017
</metadata>
<g transform="translate(0.000000,1667.000000) scale(0.100000,-0.100000)"
fill="#000000" stroke="none">
<path d="M0 8340 l0 -8330 8330 0 8330 0 0 8330 0 8330 -8330 0 -8330 0 0
-8330z m8616 4750 c535 -43 1018 -229 1454 -558 127 -97 353 -311 459 -436
246 -291 424 -679 487 -1062 25 -149 25 -474 1 -631 -74 -465 -282 -911 -628
-1343 -138 -173 -218 -258 -472 -501 -128 -123 -270 -259 -317 -304 -47 -45
-215 -198 -375 -340 -1361 -1214 -2084 -1928 -2721 -2690 -164 -196 -272 -335
-644 -823 l-245 -322 -8 1218 c-4 669 -5 2106 -4 3192 4 2178 1 2056 68 2383
156 765 615 1414 1288 1821 490 297 1093 441 1657 396z m2280 -4722 c252 -265
463 -632 569 -988 71 -241 99 -431 99 -690 0 -263 -29 -463 -101 -700 -122
-404 -328 -745 -643 -1061 -451 -453 -998 -720 -1695 -826 -98 -15 -265 -17
-1530 -20 -781 -2 -1481 -2 -1554 -1 l-135 3 114 130 c584 667 1163 1227 1950
1884 428 358 875 711 1665 1316 610 467 826 647 1075 899 63 64 117 116 121
116 3 0 33 -28 65 -62z"/>
</g>
</svg>
